<svg width="143" height="43" viewBox="0 0 143 43" fill="none" xmlns="http://www.w3.org/2000/svg">
<g clip-path="url(#clip0_43_48)">
<path d="M46.3296 12.5857H43.0072L42.8164 10.8084H38.7635L37.9281 12.5857H34.495L40.6536 0.264404H44.4453L46.3296 12.5857ZM42.0688 3.83823L40.0509 8.09714H42.5304L42.0688 3.83823Z" fill="#BA2FC9"/>
<path d="M53.8634 0.264404L52.246 9.54055H56.442L55.9194 12.5857H48.6127L50.7526 0.264404H53.8634Z" fill="#BA2FC9"/>
<path d="M58.4371 12.5857L60.577 0.264404H63.6916L61.5516 12.5857H58.4371Z" fill="#BA2FC9"/>
<path d="M72.0416 5.52671H78.1831L77.9733 6.77719C77.6834 8.64388 76.9008 10.1233 75.6254 11.2156C74.3501 12.3078 72.7963 12.8539 70.964 12.8539C69.0568 12.8539 67.5945 12.2203 66.5773 10.9531C65.5601 9.68591 65.1945 8.11897 65.4806 6.25229C65.747 4.50322 66.6272 2.90977 67.9601 1.76375C69.2654 0.600867 70.953 -0.0267816 72.692 0.00384695C73.7674 -0.017804 74.8294 0.248483 75.7704 0.775736C76.637 1.27107 77.3392 2.0151 77.7883 2.91388L74.9274 4.45766C74.4187 3.54297 73.5662 3.08563 72.3697 3.08563C71.4582 3.07824 70.5758 3.40993 69.8902 4.01768C69.1916 4.64394 68.7303 5.49684 68.5857 6.42983C68.4127 7.41399 68.5691 8.23477 69.0548 8.89216C69.5406 9.54955 70.2711 9.87117 71.2463 9.85702C72.7314 9.85702 73.7811 9.31734 74.3952 8.23798H71.5782L72.0416 5.52671Z" fill="#BA2FC9"/>
<path d="M82.9151 12.5857H79.8005L81.9404 0.264404H84.3589L87.525 6.70579L88.656 0.264404H91.7515L89.6115 12.5857H87.2122L84.0461 6.14426L82.9151 12.5857Z" fill="#BA2FC9"/>
<path d="M104.191 0.264404H107.496L105.356 12.5857H102.264L103.409 5.932L99.5942 10.8952H99.2814L97.2101 5.84515L96.0448 12.5857H92.9302L95.0701 0.264404H98.1847L100.168 5.58078L104.191 0.264404Z" fill="#BA2FC9"/>
<path d="M118.56 0.264404L118.038 3.20337H113.428L113.115 4.92853H117.332L116.809 7.82311H112.634L112.321 9.63703H117.019L116.514 12.5934H108.694L110.834 0.272107L118.56 0.264404Z" fill="#BA2FC9"/>
<path d="M122.491 12.5857H119.376L121.516 0.264404H123.935L127.101 6.70579L128.232 0.264404H131.327L129.189 12.5857H126.788L123.626 6.13847L122.491 12.5857Z" fill="#BA2FC9"/>
<path d="M133.868 0.264404H143.002L142.462 3.30949H139.47L137.852 12.5857H134.738L136.355 3.30949H133.353L133.868 0.264404Z" fill="#BA2FC9"/>
<path d="M38.8913 42.9962C35.2204 42.9962 32.3697 41.7502 30.3391 39.2583C28.3326 36.7908 27.6257 33.7103 28.2182 30.0169C28.7229 26.5829 30.4357 23.4487 33.0417 21.1903C35.6877 18.8824 38.7896 17.7284 42.3473 17.7284C44.6487 17.7284 46.633 18.2301 48.2999 19.2336C49.9671 20.2424 51.3007 21.7294 52.1316 23.506L46.5204 26.5183C45.6087 24.6966 44.0238 23.7851 41.7656 23.7838C39.9671 23.7652 38.2252 24.4187 36.8734 25.619C35.5003 26.8503 34.5934 28.5266 34.3081 30.3603C33.9877 32.2978 34.284 33.8782 35.1969 35.1017C36.1315 36.3251 37.5003 36.9369 39.3033 36.9369C41.606 36.9369 43.4758 35.9675 44.9126 34.0288L49.9421 37.3093C48.6993 39.0788 47.0498 40.5159 45.1357 41.4968C43.2026 42.4942 41.0613 43.0083 38.8913 42.9962Z" fill="#66046B"/>
<path d="M69.4401 27.2187L71.0136 18.2532H77.1036L72.8923 42.4809H66.8043L68.4121 33.1719H61.6718L60.0639 42.4809H53.9416L58.149 18.2532H64.2733L62.6998 27.2187H69.4401Z" fill="#66046B"/>
<path d="M100.637 42.4809H94.105L93.7236 38.9862H85.7531L84.1109 42.4809H77.3725L89.4856 18.2532H96.9431L100.637 42.4809ZM92.2569 25.2793L88.2878 33.6563H93.1457L92.2569 25.2793Z" fill="#66046B"/>
<path d="M105.125 42.4809L109.321 18.2532H115.444L111.236 42.4809H105.125Z" fill="#66046B"/>
<path d="M123.864 42.4809H117.742L121.949 18.2532H126.704L132.93 30.9218L135.153 18.2532H141.243L137.036 42.4809H132.315L126.088 29.8142L123.864 42.4809Z" fill="#66046B"/>
<path d="M14.4019 4.88411L9.41815 13.8438C10.3445 13.4096 11.3249 13.1051 12.3325 12.9388C13.1516 12.8022 13.9833 12.7588 14.8119 12.8095L18.0181 7.04346C19.3532 4.64288 22.4048 3.74172 24.7603 5.13305C25.8596 5.78682 26.6618 6.85049 26.9949 8.09585C27.3279 9.34122 27.1652 10.6691 26.5417 11.7945L23.2993 17.6357L22.1225 19.7584L21.4893 20.895C20.9178 21.9253 19.9971 22.7115 18.8973 23.1084C18.2262 23.3539 17.5099 23.4468 16.7993 23.3805C16.1161 23.319 15.4535 23.1111 14.8558 22.7707C14.7528 22.7128 14.6536 22.6511 14.5564 22.5777C14.1265 22.2836 13.6022 22.1662 13.0898 22.2494C12.5775 22.3326 12.1157 22.6101 11.7984 23.0254L11.7088 23.1432C11.5424 23.3649 11.4223 23.6186 11.3557 23.8888C11.2891 24.1589 11.2775 24.44 11.3216 24.7148C11.3657 24.9897 11.4645 25.2526 11.612 25.4876C11.7595 25.7227 11.9527 25.9249 12.1799 26.0821C12.3706 26.2172 12.5842 26.3465 12.7959 26.4681C13.6138 26.9346 14.4986 27.2692 15.4184 27.4599C16.179 27.6187 16.9567 27.6764 17.732 27.6317C19.6978 27.523 21.5757 26.7721 23.0838 25.4916C23.9134 24.7838 24.6105 23.9308 25.1417 22.9733L25.218 22.8383L30.2017 13.8766C30.7855 12.8269 31.1591 11.671 31.3013 10.4752C31.4436 9.2793 31.3516 8.06679 31.0307 6.90688C30.7098 5.74697 30.1662 4.66237 29.431 3.71502C28.6958 2.76766 27.7833 1.97609 26.7458 1.38552C24.6503 0.193525 22.1726 -0.107523 19.8578 0.548571C17.5429 1.20466 15.5804 2.76417 14.4019 4.88411Z" fill="url(#paint0_linear_43_48)"/>
<path d="M15.9505 15.0982C15.19 14.9395 14.4123 14.8818 13.637 14.9264C12.7116 14.9789 11.7996 15.1741 10.9325 15.5053C9.96867 15.8721 9.07348 16.4019 8.28518 17.0723C7.45587 17.7772 6.75821 18.6268 6.22533 19.5809L6.15094 19.716L1.16722 28.6776C0.583495 29.7274 0.209849 30.8832 0.0676171 32.0791C-0.0746143 33.275 0.0173535 34.4874 0.338273 35.6473C0.659192 36.8072 1.20278 37.8918 1.93799 38.8392C2.6732 39.7866 3.58564 40.5781 4.62321 41.1687C5.66077 41.7593 6.80314 42.1374 7.9851 42.2813C9.16706 42.4252 10.3655 42.3321 11.5119 42.0074C12.6583 41.6827 13.7303 41.1327 14.6666 40.3889C15.603 39.645 16.3853 38.7218 16.969 37.672L21.9527 28.7124C20.2662 29.5027 18.4124 29.8581 16.557 29.7467L13.3509 35.5127C12.0158 37.9133 8.96417 38.8145 6.60868 37.4231C5.50901 36.7697 4.70645 35.706 4.37338 34.4605C4.0403 33.215 4.20328 31.887 4.82729 30.7617L8.06966 24.9185L9.24835 22.7958L9.87966 21.6592C10.084 21.2937 10.3333 20.9559 10.6216 20.6538C11.1391 20.1126 11.7727 19.6993 12.4736 19.4458C13.1447 19.2005 13.8608 19.107 14.5716 19.1718C15.2548 19.2349 15.9171 19.4433 16.5151 19.7835C16.6162 19.8414 16.7172 19.9032 16.8145 19.9765C17.2443 20.2706 17.7687 20.388 18.281 20.3048C18.7934 20.2217 19.2551 19.9442 19.5724 19.5288L19.6621 19.4111C19.8287 19.1893 19.9489 18.9356 20.0154 18.6653C20.082 18.395 20.0935 18.1138 20.0493 17.8389C20.005 17.5639 19.9059 17.301 19.7581 17.066C19.6102 16.8311 19.4166 16.629 19.1891 16.4721C18.9984 16.3371 18.7866 16.2078 18.573 16.0862C17.7551 15.6206 16.8703 15.2872 15.9505 15.0982Z" fill="url(#paint1_linear_43_48)"/>
</g>
<defs>
<linearGradient id="paint0_linear_43_48" x1="9.41815" y1="13.9287" x2="31.369" y2="13.9287" gradientUnits="userSpaceOnUse">
<stop stop-color="#AE1CBA"/>
<stop offset="0.19" stop-color="#AA1BB6"/>
<stop offset="0.39" stop-color="#9F17AA"/>
<stop offset="0.58" stop-color="#8D1196"/>
<stop offset="0.77" stop-color="#74097A"/>
<stop offset="0.86" stop-color="#66046B"/>
</linearGradient>
<linearGradient id="paint1_linear_43_48" x1="-3.07878e-05" y1="28.6313" x2="21.9527" y2="28.6313" gradientUnits="userSpaceOnUse">
<stop stop-color="#AE1CBA"/>
<stop offset="0.19" stop-color="#AA1BB6"/>
<stop offset="0.39" stop-color="#9F17AA"/>
<stop offset="0.58" stop-color="#8D1196"/>
<stop offset="0.77" stop-color="#74097A"/>
<stop offset="0.86" stop-color="#66046B"/>
</linearGradient>
<clipPath id="clip0_43_48">
<rect width="143" height="43" fill="white"/>
</clipPath>
</defs>
</svg>
