<svg width="810" height="991" viewBox="0 0 810 991" fill="none" xmlns="http://www.w3.org/2000/svg">
<path d="M477.808 445.072C431.036 471.849 405.82 564.021 424.604 611.143C445.358 663.18 575.128 655.275 590.019 642.587C604.909 629.898 483.175 589.296 499.786 541.416C518.235 488.271 610.874 488.198 608.351 465.505C605.872 443.176 531.871 414.125 477.808 445.072Z" stroke="url(#paint0_linear_43_4)" stroke-opacity="0.1" stroke-width="2" stroke-miterlimit="10"/>
<path d="M463.165 438.524C408.343 461.859 384.556 573.429 408.722 625.99C436.112 685.523 577.098 663.457 598.026 654.036C616.067 645.927 498.955 591.324 512.956 533.468C528.153 470.61 611.706 460.401 605.464 445.817C598.755 430.182 527.497 411.208 463.165 438.524Z" stroke="url(#paint1_linear_43_4)" stroke-opacity="0.1" stroke-width="2" stroke-miterlimit="10"/>
<path d="M448.524 431.991C385.738 451.811 363.337 582.821 392.841 640.823C426.924 707.91 577.944 671.45 606.033 665.5C626.451 661.124 514.838 593.424 526.112 525.491C538.144 453.036 614.419 431.787 602.577 426.23C593.739 416.386 523.355 408.35 448.524 431.991Z" stroke="url(#paint2_linear_43_4)" stroke-opacity="0.1" stroke-width="2" stroke-miterlimit="10"/>
<path d="M433.881 425.399C363.176 441.85 342.16 592.155 377.002 655.626C417.838 730.122 580.788 689.972 614.083 676.919C634.939 668.737 530.822 595.495 539.31 517.528C548.25 435.477 616.227 403.566 599.733 406.585C587.671 402.983 519.198 405.579 433.881 425.399Z" stroke="url(#paint3_linear_43_4)" stroke-opacity="0.1" stroke-width="2" stroke-miterlimit="10"/>
<path d="M419.237 418.894C340.642 432.02 321.012 601.548 361.075 670.516C408.678 752.48 579.839 698.781 622.045 688.411C645.73 682.578 546.762 597.668 552.435 509.623C558.269 417.976 619.522 379.079 596.8 386.999C582.245 392.059 515.07 402.881 419.237 418.894Z" stroke="url(#paint4_linear_43_4)" stroke-opacity="0.1" stroke-width="2" stroke-miterlimit="10"/>
<path d="M404.611 412.346C318.111 422.22 299.881 610.91 345.194 685.348C399.608 774.764 579.155 691.97 630.068 699.933C656.451 704.031 562.806 599.856 565.606 501.718C568.523 400.504 621.755 350.173 593.914 367.441C576.588 378.117 510.959 400.227 404.611 412.346Z" stroke="url(#paint5_linear_43_4)" stroke-opacity="0.1" stroke-width="2" stroke-miterlimit="10"/>
<path d="M389.969 405.812C295.58 412.434 278.764 620.201 329.298 700.195C390.552 797.035 579.783 697.979 638.061 711.323C666.574 717.857 578.835 601.941 578.747 493.712C578.66 382.871 623.521 321.326 591.013 347.753C570.624 364.335 506.847 397.602 389.969 405.812Z" stroke="url(#paint6_linear_43_4)" stroke-opacity="0.1" stroke-width="2" stroke-miterlimit="10"/>
<path d="M375.323 399.264C273.044 402.677 257.687 629.578 313.413 715.042C381.463 819.305 580.567 703.769 646.065 722.786C676.78 731.697 594.904 604.041 591.914 485.763C588.866 365.356 625.166 292.712 588.122 328.137C564.554 350.655 502.702 395.02 375.323 399.264Z" stroke="url(#paint7_linear_43_4)" stroke-opacity="0.1" stroke-width="2" stroke-miterlimit="10"/>
<path d="M360.682 392.715C250.513 392.934 236.541 638.912 297.532 729.889C372.408 841.575 581.488 709.471 654.074 734.264C687.063 745.537 610.992 606.185 605.07 477.829C599.076 347.825 626.786 264.228 585.236 308.521C558.43 337.062 498.605 392.453 360.682 392.715Z" stroke="url(#paint8_linear_43_4)" stroke-opacity="0.1" stroke-width="2" stroke-miterlimit="10"/>
<path d="M346.039 386.182C227.907 383.265 215.437 648.232 281.65 744.721C363.322 863.816 582.523 715.013 662.08 745.698C697.403 759.32 627.078 608.285 618.225 469.866C609.299 330.266 628.434 235.775 582.333 288.876C552.29 323.514 494.478 389.916 346.039 386.182Z" stroke="url(#paint9_linear_43_4)" stroke-opacity="0.1" stroke-width="2" stroke-miterlimit="10"/>
<path d="M331.397 379.634C205.418 373.494 194.305 657.551 265.768 759.568C354.323 886.072 583.704 720.54 670.087 757.161C707.787 773.117 643.193 610.4 631.395 461.918C619.538 312.707 630.024 207.394 579.446 269.26C546.135 309.994 490.336 387.393 331.397 379.634Z" stroke="url(#paint10_linear_43_4)" stroke-opacity="0.1" stroke-width="2" stroke-miterlimit="10"/>
<path d="M316.754 373.085C182.87 363.78 173.259 666.87 249.885 774.414C345.295 908.312 584.827 726.024 678.093 768.581C718.185 786.898 659.294 612.529 644.549 453.925C629.775 295.118 631.642 178.998 576.557 249.6C539.995 296.488 486.193 384.869 316.754 373.085Z" stroke="url(#paint11_linear_43_4)" stroke-opacity="0.1" stroke-width="2" stroke-miterlimit="10"/>
<path d="M302.113 366.551C160.31 354.082 152.172 676.248 234.004 789.246C336.269 930.553 586.068 731.493 686.116 780.073C728.644 800.724 675.426 614.615 657.72 446.006C640.015 277.398 633.263 150.69 573.671 229.97C533.842 282.998 482.053 382.375 302.113 366.551Z" stroke="url(#paint12_linear_43_4)" stroke-opacity="0.1" stroke-width="2" stroke-miterlimit="10"/>
<path d="M287.471 360.003C137.749 344.383 131.084 685.494 218.108 804.093C327.242 952.852 587.366 737.006 694.108 791.536C739.101 814.535 691.542 616.715 670.876 438.058C650.268 260.028 634.896 122.382 570.77 210.383C527.688 269.522 477.912 379.867 287.471 360.003Z" stroke="url(#paint13_linear_43_4)" stroke-opacity="0.1" stroke-width="2" stroke-miterlimit="10"/>
<path d="M272.825 353.455C115.184 334.685 110.226 694.639 202.267 818.94C318.547 974.817 588.749 742.373 702.156 802.985C749.613 828.347 707.713 618.815 684.072 430.11C660.562 242.469 636.571 94.0596 567.923 190.753C521.53 256.047 473.738 377.388 272.825 353.455Z" stroke="url(#paint14_linear_43_4)" stroke-opacity="0.1" stroke-width="2" stroke-miterlimit="10"/>
<path d="M258.185 346.921C92.6243 325.001 89.1241 703.958 186.343 833.758C309.448 997.101 590.049 747.711 710.121 814.419C760.072 842.129 723.801 620.886 697.185 422.103C670.788 224.836 638.163 65.7075 564.993 171.064C515.378 242.571 469.583 374.894 258.185 346.921Z" stroke="url(#paint15_linear_43_4)" stroke-opacity="0.1" stroke-width="2" stroke-miterlimit="10"/>
<path d="M243.542 340.372C69.9895 315.317 68.006 713.292 170.46 848.619C300.391 1019.25 591.42 753.223 718.128 825.897C770.631 855.984 740.281 622.971 710.34 414.198C681.39 207.277 639.796 37.4577 562.106 151.507C509.223 229.109 465.412 372.414 243.542 340.372Z" stroke="url(#paint16_linear_43_4)" stroke-opacity="0.1" stroke-width="2" stroke-miterlimit="10"/>
<path d="M228.9 333.825C47.4287 305.954 46.8891 722.626 154.579 863.466C291.336 1041.6 592.821 758.649 726.15 837.36C781.089 869.796 756.34 625.072 723.511 406.25C691.586 189.718 641.43 9.17954 559.204 131.877C503.07 215.649 461.184 370.344 228.9 333.825Z" stroke="url(#paint17_linear_43_4)" stroke-opacity="0.1" stroke-width="2" stroke-miterlimit="10"/>
<path d="M216.479 324.264C27.0884 293.171 28.0218 728.918 140.918 875.286C284.486 1060.83 596.457 761.033 736.378 845.797C793.826 880.595 774.633 624.116 738.887 395.275C704.001 169.132 645.3 -22.1408 558.538 109.234C499.093 199.233 459.249 364.75 216.479 324.264Z" stroke="url(#paint18_linear_43_4)" stroke-opacity="0.1" stroke-width="2" stroke-miterlimit="10"/>
<path d="M199.613 320.743C2.30293 286.44 4.66557 741.279 122.813 893.145C273.205 1086.07 595.677 769.485 742.162 860.272C802.132 897.447 788.554 629.287 749.818 390.397C711.899 154.643 644.476 -47.5096 553.427 92.6742C490.583 188.624 452.869 365.195 199.613 320.743Z" stroke="url(#paint19_linear_43_4)" stroke-opacity="0.1" stroke-width="2" stroke-miterlimit="10"/>
<path d="M184.972 314.194C-20.2573 276.639 -16.4945 750.627 106.932 907.991C264.15 1108.36 597.123 774.91 750.17 871.677C812.678 911.229 804.555 631.328 762.99 382.346C722.168 137.024 646.243 -75.745 550.541 72.9996C484.518 175.235 448.743 362.686 184.972 314.194Z" stroke="url(#paint20_linear_43_4)" stroke-opacity="0.1" stroke-width="2" stroke-miterlimit="10"/>
<path d="M547.638 53.3838C478.45 161.832 444.542 360.047 170.329 307.66C-42.8346 266.926 -37.5697 759.932 91.0342 922.838C255.092 1130.63 598.566 780.336 758.176 883.184C887.246 966.372 749.965 -263.78 547.638 53.3838Z" stroke="url(#paint21_linear_43_4)" stroke-opacity="0.1" stroke-width="2" stroke-miterlimit="10"/>
<defs>
<linearGradient id="paint0_linear_43_4" x1="513.377" y1="431.601" x2="513.377" y2="651.987" gradientUnits="userSpaceOnUse">
<stop stop-color="#66046B"/>
<stop offset="1" stop-color="#BA2FC9"/>
</linearGradient>
<linearGradient id="paint1_linear_43_4" x1="502.547" y1="424.7" x2="502.547" y2="665.921" gradientUnits="userSpaceOnUse">
<stop stop-color="#66046B"/>
<stop offset="1" stop-color="#BA2FC9"/>
</linearGradient>
<linearGradient id="paint2_linear_43_4" x1="494.26" y1="416.539" x2="494.26" y2="680.721" gradientUnits="userSpaceOnUse">
<stop stop-color="#66046B"/>
<stop offset="1" stop-color="#BA2FC9"/>
</linearGradient>
<linearGradient id="paint3_linear_43_4" x1="488.681" y1="405.215" x2="488.681" y2="699.464" gradientUnits="userSpaceOnUse">
<stop stop-color="#66046B"/>
<stop offset="1" stop-color="#BA2FC9"/>
</linearGradient>
<linearGradient id="paint4_linear_43_4" x1="483.298" y1="385.998" x2="483.298" y2="715.261" gradientUnits="userSpaceOnUse">
<stop stop-color="#66046B"/>
<stop offset="1" stop-color="#BA2FC9"/>
</linearGradient>
<linearGradient id="paint5_linear_43_4" x1="477.964" y1="364.097" x2="477.964" y2="727.234" gradientUnits="userSpaceOnUse">
<stop stop-color="#66046B"/>
<stop offset="1" stop-color="#BA2FC9"/>
</linearGradient>
<linearGradient id="paint6_linear_43_4" x1="472.57" y1="341.661" x2="472.57" y2="743.157" gradientUnits="userSpaceOnUse">
<stop stop-color="#66046B"/>
<stop offset="1" stop-color="#BA2FC9"/>
</linearGradient>
<linearGradient id="paint7_linear_43_4" x1="467.246" y1="319.142" x2="467.246" y2="759.224" gradientUnits="userSpaceOnUse">
<stop stop-color="#66046B"/>
<stop offset="1" stop-color="#BA2FC9"/>
</linearGradient>
<linearGradient id="paint8_linear_43_4" x1="461.984" y1="296.553" x2="461.984" y2="775.415" gradientUnits="userSpaceOnUse">
<stop stop-color="#66046B"/>
<stop offset="1" stop-color="#BA2FC9"/>
</linearGradient>
<linearGradient id="paint9_linear_43_4" x1="456.807" y1="273.887" x2="456.807" y2="791.664" gradientUnits="userSpaceOnUse">
<stop stop-color="#66046B"/>
<stop offset="1" stop-color="#BA2FC9"/>
</linearGradient>
<linearGradient id="paint10_linear_43_4" x1="451.741" y1="251.216" x2="451.741" y2="808.007" gradientUnits="userSpaceOnUse">
<stop stop-color="#66046B"/>
<stop offset="1" stop-color="#BA2FC9"/>
</linearGradient>
<linearGradient id="paint11_linear_43_4" x1="446.793" y1="228.48" x2="446.793" y2="824.401" gradientUnits="userSpaceOnUse">
<stop stop-color="#66046B"/>
<stop offset="1" stop-color="#BA2FC9"/>
</linearGradient>
<linearGradient id="paint12_linear_43_4" x1="441.97" y1="205.756" x2="441.97" y2="840.841" gradientUnits="userSpaceOnUse">
<stop stop-color="#66046B"/>
<stop offset="1" stop-color="#BA2FC9"/>
</linearGradient>
<linearGradient id="paint13_linear_43_4" x1="437.266" y1="183.072" x2="437.266" y2="857.36" gradientUnits="userSpaceOnUse">
<stop stop-color="#66046B"/>
<stop offset="1" stop-color="#BA2FC9"/>
</linearGradient>
<linearGradient id="paint14_linear_43_4" x1="432.782" y1="160.327" x2="432.782" y2="873.748" gradientUnits="userSpaceOnUse">
<stop stop-color="#66046B"/>
<stop offset="1" stop-color="#BA2FC9"/>
</linearGradient>
<linearGradient id="paint15_linear_43_4" x1="428.346" y1="137.522" x2="428.346" y2="890.287" gradientUnits="userSpaceOnUse">
<stop stop-color="#66046B"/>
<stop offset="1" stop-color="#BA2FC9"/>
</linearGradient>
<linearGradient id="paint16_linear_43_4" x1="424.129" y1="114.82" x2="424.129" y2="906.837" gradientUnits="userSpaceOnUse">
<stop stop-color="#66046B"/>
<stop offset="1" stop-color="#BA2FC9"/>
</linearGradient>
<linearGradient id="paint17_linear_43_4" x1="419.99" y1="92.0658" x2="419.99" y2="923.471" gradientUnits="userSpaceOnUse">
<stop stop-color="#66046B"/>
<stop offset="1" stop-color="#BA2FC9"/>
</linearGradient>
<linearGradient id="paint18_linear_43_4" x1="418.225" y1="66.2785" x2="418.225" y2="937.055" gradientUnits="userSpaceOnUse">
<stop stop-color="#66046B"/>
<stop offset="1" stop-color="#BA2FC9"/>
</linearGradient>
<linearGradient id="paint19_linear_43_4" x1="412.145" y1="46.5172" x2="412.145" y2="956.684" gradientUnits="userSpaceOnUse">
<stop stop-color="#66046B"/>
<stop offset="1" stop-color="#BA2FC9"/>
</linearGradient>
<linearGradient id="paint20_linear_43_4" x1="408.372" y1="23.7356" x2="408.372" y2="973.342" gradientUnits="userSpaceOnUse">
<stop stop-color="#66046B"/>
<stop offset="1" stop-color="#BA2FC9"/>
</linearGradient>
<linearGradient id="paint21_linear_43_4" x1="404.717" y1="1.00098" x2="404.717" y2="990" gradientUnits="userSpaceOnUse">
<stop stop-color="#66046B"/>
<stop offset="1" stop-color="#BA2FC9"/>
</linearGradient>
</defs>
</svg>
