<svg width="119" height="19" viewBox="0 0 119 19" fill="none" xmlns="http://www.w3.org/2000/svg">
<path fill-rule="evenodd" clip-rule="evenodd" d="M108.074 0C113.558 0 118.021 4.24252 118.021 9.5L108.074 19C113.558 19 118.021 14.7575 118.021 9.5L108.074 0ZM105.014 18.5331L109.583 14.1688H99.4028C100.635 16.219 102.633 17.8024 105.014 18.5331ZM98.4251 11.8547H112.006L114.472 9.5L112.006 7.125H98.4251C98.2126 7.87607 98.1063 8.66774 98.1063 9.4797C98.1276 10.312 98.2338 11.1036 98.4251 11.8547ZM99.4028 4.8312H109.583L105.014 0.446581C102.633 1.19765 100.635 2.76068 99.4028 4.8312Z" fill="#470F4A"/>
<path fill-rule="evenodd" clip-rule="evenodd" d="M8.16138 14.1079V11.7329H2.74171V2.84186H0V14.1079H8.16138ZM19.8296 9.56088V9.54058C19.8296 8.891 19.7021 8.26173 19.447 7.69335C19.192 7.12498 18.8307 6.6175 18.3631 6.19122C17.9168 5.76494 17.3642 5.44015 16.7478 5.19656C16.1102 4.95297 15.4301 4.83117 14.7075 4.83117C13.9636 4.83117 13.2835 4.95297 12.6459 5.19656C12.0083 5.44015 11.4769 5.78523 11.0094 6.21152C10.5418 6.6378 10.1805 7.14528 9.92543 7.71365C9.67039 8.28203 9.54287 8.891 9.54287 9.56088V9.60147C9.54287 10.251 9.67039 10.8803 9.92543 11.4487C10.1805 12.0171 10.5418 12.5246 11.0094 12.9508C11.4557 13.3771 12.0083 13.7019 12.6246 13.9455C13.2622 14.1891 13.9424 14.3109 14.665 14.3109C15.4089 14.3109 16.089 14.1891 16.7266 13.9455C17.3642 13.7019 17.8955 13.3568 18.3631 12.9305C18.8307 12.5043 19.192 11.9968 19.447 11.4284C19.7021 10.8397 19.8296 10.2307 19.8296 9.56088ZM17.1517 9.60147C17.1517 9.94656 17.0879 10.251 16.9816 10.5555C16.8754 10.86 16.7053 11.1239 16.4928 11.3472C16.2803 11.5705 16.0252 11.7532 15.7277 11.875C15.4301 11.9968 15.0688 12.078 14.6862 12.078C14.3037 12.078 13.9636 12.0171 13.6661 11.875C13.3685 11.7329 13.0922 11.5502 12.8797 11.3269C12.6459 11.1036 12.4759 10.8194 12.3696 10.5352C12.2421 10.2307 12.1996 9.90596 12.1996 9.58117V9.54058C12.1996 9.19549 12.2633 8.891 12.3696 8.58652C12.4759 8.28203 12.6459 8.01814 12.8584 7.79485C13.071 7.57156 13.326 7.38887 13.6236 7.26707C13.9211 7.14528 14.2824 7.06408 14.665 7.06408C15.0263 7.06408 15.3664 7.12498 15.6852 7.26707C15.9827 7.40917 16.259 7.59186 16.4928 7.81515C16.7266 8.03844 16.8966 8.32263 17.0029 8.60682C17.1304 8.9113 17.1729 9.23609 17.1729 9.56088V9.60147H17.1517ZM31.7316 12.0374V4.87177H29.0324V6.19122C28.6711 5.80553 28.0547 5.29805 27.5659 5.03417C24.8242 3.53203 21.4661 6.00852 21.4661 9.0737V9.11429C21.4661 11.5096 23.2514 13.3568 25.8231 13.3568C27.1834 13.3568 28.2035 12.8696 29.0749 11.875V12.3216C29.0749 14.047 28.0973 15.0619 26.3545 15.0619C25.143 15.0619 24.1866 14.6966 23.1452 14.1485L22.2313 16.0769C23.5277 16.7265 24.9942 17.1122 26.4395 17.1122C29.9251 17.1122 31.7316 15.5085 31.7316 12.0374ZM28.9687 9.11429C28.9687 10.3728 27.906 11.2254 26.6095 11.2254C25.2918 11.2254 24.1653 10.4134 24.1653 9.11429V9.0737C24.1653 7.81515 25.2493 6.77989 26.5457 6.77989C27.8422 6.77989 28.9687 7.79485 28.9687 9.0737V9.11429ZM36.79 14.1079V4.87177H34.0908V14.1079H36.79ZM47.9056 12.6463L46.3328 11.1239C45.6952 11.6923 44.8238 12.0983 43.9099 12.0983C42.4009 12.0983 41.4233 10.7991 41.4233 9.43908V9.39848C41.4233 8.11964 42.3797 6.86109 43.8037 6.86109C44.7388 6.86109 45.5677 7.22647 46.2053 7.85575L47.8631 6.15062C46.8004 5.03417 45.3764 4.62818 43.8249 4.62818C41.0194 4.62818 38.7666 6.73929 38.7666 9.43908V9.47968C38.7666 12.1389 41.0194 14.3312 43.8037 14.3312C45.4402 14.3109 46.8004 13.8034 47.9056 12.6463Z" fill="#470F4A"/>
<path fill-rule="evenodd" clip-rule="evenodd" d="M60.3816 6.96273V6.92214C60.3816 6.31316 60.2754 5.74479 60.0628 5.25761C59.8503 4.75013 59.5315 4.32385 59.1277 3.95846C58.7239 3.59308 58.2138 3.30889 57.6399 3.1262C57.0448 2.92321 56.386 2.82171 55.6421 2.82171H49.8186V14.108H52.5603V11.1241H55.3871C56.0884 11.1241 56.7473 11.0429 57.3424 10.8602C57.9587 10.6775 58.4901 10.4136 58.9364 10.0685C59.3827 9.72342 59.744 9.27684 60.0203 8.76936C60.2329 8.26188 60.3816 7.6529 60.3816 6.96273ZM57.5974 7.00333C57.5974 7.51081 57.4061 7.93709 57.0236 8.28218C56.641 8.62726 56.1097 8.78966 55.4296 8.78966H52.5178V5.17641H55.3658C56.0459 5.17641 56.5985 5.3388 56.9811 5.64329C57.3849 5.94778 57.5762 6.39436 57.5762 6.98303V7.00333H57.5974ZM64.7174 14.108V2.59842H62.0182V14.108H64.7174ZM76.4069 14.108V4.85162H73.7077V10.0482C73.7077 11.1038 72.9638 12.1187 71.7736 12.1187C70.3708 12.1187 69.8182 11.0835 69.8182 10.0482V4.85162H67.119V10.8805C67.119 12.8698 68.7343 14.2501 70.9022 14.2501C72.1349 14.2501 72.985 13.6817 73.6864 12.7886V14.0877H76.4069V14.108ZM94.0899 14.108V8.18068C94.0899 6.17107 92.5384 4.62833 90.3492 4.62833C89.0528 4.62833 88.0751 5.3388 87.2462 6.29286C86.7149 5.27791 85.3971 4.62833 84.2494 4.62833C83.0167 4.62833 82.1878 5.05462 81.5077 6.00867V4.85162H78.8085V14.0877H81.5077V9.03325C81.5077 7.99799 81.8478 6.88154 83.3143 6.88154C84.7595 6.88154 85.0783 8.01829 85.0783 9.03325V14.0877H87.7775V9.03325C87.7775 7.99799 88.2026 6.88154 89.6266 6.88154C91.0506 6.88154 91.3907 8.01829 91.3907 9.03325V14.0877H94.0899V14.108Z" fill="#470F4A"/>
<path d="M35.4512 3.36971C36.3432 3.36971 37.0664 2.679 37.0664 1.82698C37.0664 0.974946 36.3432 0.284241 35.4512 0.284241C34.5591 0.284241 33.8359 0.974946 33.8359 1.82698C33.8359 2.679 34.5591 3.36971 35.4512 3.36971Z" fill="#470F4A" stroke="#470F4A" stroke-width="0.216" stroke-miterlimit="22.9256"/>
</svg>
