<svg width="23" height="17" viewBox="0 0 23 17" fill="none" xmlns="http://www.w3.org/2000/svg">
<path opacity="0.5" fill-rule="evenodd" clip-rule="evenodd" d="M20.0703 7.48368C20.0703 9.78586 18.2403 11.6158 15.9381 11.6158H4.13211C1.82994 11.6158 0 9.78586 0 7.48368C0 5.18151 1.82994 3.35157 4.13211 3.35157H15.9381C18.2403 3.35157 20.0703 5.18151 20.0703 7.48368Z" fill="#2C98F0"/>
<g filter="url(#filter0_dd_33_762)">
<path fill-rule="evenodd" clip-rule="evenodd" d="M15.5165 13.3865C18.7767 13.3865 21.4195 10.7436 21.4195 7.48349C21.4195 4.22334 18.7767 1.58047 15.5165 1.58047C12.2564 1.58047 9.61349 4.22334 9.61349 7.48349C9.61349 10.7436 12.2564 13.3865 15.5165 13.3865Z" fill="#2C98F0"/>
<path d="M21.222 7.48349C21.222 10.6345 18.6675 13.1889 15.5165 13.1889C12.3655 13.1889 9.81105 10.6345 9.81105 7.48349C9.81105 4.33245 12.3655 1.77803 15.5165 1.77803C18.6675 1.77803 21.222 4.33245 21.222 7.48349Z" stroke="url(#paint0_linear_33_762)" stroke-width="0.388889"/>
<path d="M21.222 7.48349C21.222 10.6345 18.6675 13.1889 15.5165 13.1889C12.3655 13.1889 9.81105 10.6345 9.81105 7.48349C9.81105 4.33245 12.3655 1.77803 15.5165 1.77803C18.6675 1.77803 21.222 4.33245 21.222 7.48349Z" stroke="url(#paint1_linear_33_762)" stroke-width="0.388889"/>
</g>
<defs>
<filter id="filter0_dd_33_762" x="8.03301" y="-1.36865e-05" width="14.967" height="16.5475" filterUnits="userSpaceOnUse" color-interpolation-filters="sRGB">
<feFlood flood-opacity="0" result="BackgroundImageFix"/>
<feColorMatrix in="SourceAlpha" type="matrix" values="0 0 0 0 0 0 0 0 0 0 0 0 0 0 0 0 0 0 127 0" result="hardAlpha"/>
<feOffset dy="1.55556"/>
<feGaussianBlur stdDeviation="0.777778"/>
<feColorMatrix type="matrix" values="0 0 0 0 0 0 0 0 0 0 0 0 0 0 0 0 0 0 0.24 0"/>
<feBlend mode="normal" in2="BackgroundImageFix" result="effect1_dropShadow_33_762"/>
<feColorMatrix in="SourceAlpha" type="matrix" values="0 0 0 0 0 0 0 0 0 0 0 0 0 0 0 0 0 0 127 0" result="hardAlpha"/>
<feOffset/>
<feGaussianBlur stdDeviation="0.777778"/>
<feColorMatrix type="matrix" values="0 0 0 0 0 0 0 0 0 0 0 0 0 0 0 0 0 0 0.12 0"/>
<feBlend mode="normal" in2="effect1_dropShadow_33_762" result="effect2_dropShadow_33_762"/>
<feBlend mode="normal" in="SourceGraphic" in2="effect2_dropShadow_33_762" result="shape"/>
</filter>
<linearGradient id="paint0_linear_33_762" x1="9.67126" y1="1.58047" x2="9.67126" y2="13.271" gradientUnits="userSpaceOnUse">
<stop stop-opacity="0"/>
<stop offset="0.8" stop-opacity="0.02"/>
<stop offset="1" stop-opacity="0.04"/>
</linearGradient>
<linearGradient id="paint1_linear_33_762" x1="9.61349" y1="1.58047" x2="9.61349" y2="13.3865" gradientUnits="userSpaceOnUse">
<stop stop-color="white" stop-opacity="0.12"/>
<stop offset="0.2" stop-color="white" stop-opacity="0.06"/>
<stop offset="1" stop-color="white" stop-opacity="0"/>
</linearGradient>
</defs>
</svg>
