<svg width="211" height="51" viewBox="0 0 211 51" fill="none" xmlns="http://www.w3.org/2000/svg">
<g clip-path="url(#clip0_33_781)">
<path d="M39.0319 15.6677L41.7705 14.0055C41.1488 12.3652 39.8812 9.41066 39.0319 7.93225V15.6677Z" fill="#7400B8"/>
<path d="M39.0319 15.6677L41.7072 17.2911C41.9702 16.5444 42.2981 15.6237 42.0943 14.9279C42.035 14.7251 41.9219 14.4035 41.7705 14.004L39.0319 15.6677Z" fill="#4F0682"/>
<path d="M39.0319 23.5528L42.8513 21.2347C42.7289 21.1037 42.6021 20.9719 42.4658 20.8375C41.7555 20.1388 41.4302 18.9952 41.4302 18.3252C41.4302 18.0834 41.5585 17.715 41.7072 17.2914L39.0319 15.668V23.5528Z" fill="#7400B8"/>
<path d="M39.0319 23.5528L44.4409 26.8359C44.771 26.6548 45.034 26.3628 45.1881 26.0065C45.4613 25.3908 45.5115 24.9994 45.2662 24.4468C44.993 23.8314 44.6955 23.5994 44.2177 22.9296C43.8265 22.3811 43.4028 21.8231 42.8518 21.2333L39.0324 23.5514L39.0319 23.5528Z" fill="#4F0682"/>
<path d="M39.0319 31.4379L43.3135 28.8395C43.1717 28.4328 43.0542 28.0848 43.0234 27.9552C42.9436 27.6204 43.2884 27.5087 43.5274 27.2574C43.6667 27.1109 44.053 27.0581 44.4415 26.8372L39.0324 23.5542L39.0319 31.4379Z" fill="#7400B8"/>
<path d="M39.0318 31.4385L43.6006 34.2115C43.7262 33.9775 43.8191 33.7747 43.8191 33.7026C43.8191 33.5352 43.6598 32.9488 43.4208 32.6975C43.2504 32.5123 43.0908 32.3164 42.9427 32.1111L43.5508 31.5999C43.5508 31.5999 44.0806 31.0896 43.9213 30.587C43.8235 30.2789 43.5388 29.4842 43.3126 28.8384L39.031 31.4371L39.0318 31.4385Z" fill="#4F0682"/>
<path d="M39.0319 39.3234L43.0031 36.9134C42.8431 36.5326 42.6753 36.2 42.6251 35.9944C42.5453 35.6592 42.8379 35.4111 43.0769 35.0754C43.2663 34.7978 43.4411 34.5095 43.6006 34.2119L39.0319 31.4388V39.3234Z" fill="#7400B8"/>
<path d="M39.0319 39.3236L42.3139 41.3155C42.339 41.2997 42.3639 41.2839 42.386 41.2684C42.8641 40.9335 43.2624 40.2632 43.4217 39.6774C43.5809 39.0915 43.4217 38.3374 43.2624 37.6671C43.1964 37.4079 43.1097 37.1551 43.0032 36.9113L39.0319 39.3213V39.3236Z" fill="#4F0682"/>
<path d="M40.076 42.0234C40.6835 42.0234 41.797 41.6431 42.3131 41.3175L39.0319 39.3262V41.9886C39.478 42.0044 39.8602 42.0234 40.076 42.0234Z" fill="#7400B8"/>
<path d="M38.8933 7.69734L38.878 7.67149C37.8424 5.99781 35.3761 4.42348 33.9424 3.16851C33.8998 3.13146 33.8574 3.0993 33.8148 3.06311L32.5358 3.8385L38.8933 7.69734Z" fill="#6930C3"/>
<path d="M38.9676 7.82131C38.9429 7.77919 38.9183 7.73832 38.8939 7.69869L32.5358 3.83984V11.725L38.9676 7.82131Z" fill="#656BDB"/>
<path d="M39.0318 15.6677V7.93226C39.0102 7.89493 38.9886 7.85702 38.9676 7.82141L32.536 11.7251L39.0318 15.6677Z" fill="#6930C3"/>
<path d="M39.0318 15.6677L32.536 11.725H32.5358V11.7253V19.6101H32.536L39.0318 15.6677Z" fill="#656BDB"/>
<path d="M39.0318 15.6677L32.536 19.6101L39.0321 23.5528V15.6692V15.668V15.6677H39.0318Z" fill="#6930C3"/>
<path d="M39.031 23.5534L39.0318 23.5528H39.0321L32.536 19.6101H32.5358V19.6104V27.4955L39.0307 23.5537L39.031 23.5534Z" fill="#656BDB"/>
<path d="M39.0321 23.5542V23.5531L39.0313 23.5537L39.0307 23.554L32.536 27.4958L39.0318 31.4382H39.0321V31.4379V23.5542Z" fill="#6930C3"/>
<path d="M39.0318 31.4381L32.536 27.4957H32.5358V35.3808L39.0318 31.4381Z" fill="#656BDB"/>
<path d="M32.5358 35.3809H32.536L39.0307 39.3228L39.0318 39.3236H39.0321V31.4397V31.4385V31.4382H39.0318L32.5358 35.3809Z" fill="#6930C3"/>
<path d="M39.0318 39.3248L39.031 39.3242L39.0307 39.3239L32.5358 35.3821V43.2672H32.536L39.0318 39.3248Z" fill="#656BDB"/>
<path d="M39.0318 39.3247L32.536 43.2671L34.6283 44.537C34.8228 44.1861 34.9892 43.9627 35.034 43.8765C35.3031 43.3579 35.6077 42.3496 36.4117 42.1086C37.0381 41.9208 38.1617 41.9596 39.0318 41.99V39.3264V39.3247Z" fill="#6930C3"/>
<path d="M32.536 43.2672V48.5961C33.2444 47.18 34.1128 45.4676 34.6286 44.5368L32.536 43.2672Z" fill="#656BDB"/>
<path d="M32.5358 3.83871L33.8143 3.06332C33.4093 2.71765 32.9821 2.40176 32.5358 2.11792V3.83871Z" fill="#656BDB"/>
<path d="M32.5355 2.11494C31.5506 1.48831 30.5311 1.0495 29.4018 0.653766C28.6278 0.382668 27.3939 0.183365 26.291 0.0472412L32.5355 3.83802V2.11494Z" fill="#2F8CEA"/>
<path d="M26.0408 7.78233L32.5355 3.84049L26.2899 0.0497141C26.206 0.0393756 26.1227 0.0293243 26.0408 0.0209961V7.78233Z" fill="#48BFE3"/>
<path d="M26.0408 7.78234H26.0403L26.0408 7.78262V7.78349L32.5358 11.7256V3.84021L26.0408 7.78205V7.78234Z" fill="#2F8CEA"/>
<path d="M26.0408 15.6677L32.5355 11.7259L26.0408 7.78406V15.6677Z" fill="#48BFE3"/>
<path d="M26.0408 15.668V15.6691L32.5355 19.6109H32.5357V11.7258H32.5355L26.0408 15.6677V15.668Z" fill="#2F8CEA"/>
<path d="M32.5355 19.611L26.0408 15.6692V23.5529L32.5355 19.611Z" fill="#48BFE3"/>
<path d="M26.0408 23.5528L26.0397 23.5534L26.0399 23.5537L26.0408 23.5531V23.5542L32.5357 27.4961V19.6112V19.611H32.5355L26.0408 23.5528Z" fill="#2F8CEA"/>
<path d="M26.0408 31.4379L32.5355 27.496H32.5357L26.0408 23.5542V31.4379Z" fill="#48BFE3"/>
<path d="M26.0408 31.4385V31.4396L32.5355 35.3814H32.5357V27.4963L26.0408 31.4385Z" fill="#2F8CEA"/>
<path d="M32.5355 35.3814L26.0408 31.4396V39.3235L32.5355 35.3814Z" fill="#48BFE3"/>
<path d="M26.0408 39.3236H26.0405L26.0397 39.3242L26.0408 39.3247V39.325L32.5357 43.2669V35.3818V35.3815H32.5355L26.0408 39.3236Z" fill="#2F8CEA"/>
<path d="M32.5355 43.268L26.0408 39.3262V47.2098L32.5355 43.268Z" fill="#48BFE3"/>
<path d="M26.0408 47.2098L31.5613 50.5603C31.7604 50.1562 32.1202 49.4291 32.5368 48.596V43.2679L26.0408 47.2098Z" fill="#2F8CEA"/>
<path d="M26.0408 7.78345V0.0195283C25.9834 0.0126359 25.9269 0.00631797 25.8706 0L19.5444 3.8396L26.0394 7.78144L26.0408 7.78345Z" fill="#53B1E0"/>
<path d="M26.0407 7.78254L26.0402 7.78226L26.0394 7.78197L19.5447 3.83984V11.7252L26.0407 7.78254Z" fill="#56CFE1"/>
<path d="M26.0407 15.6677V7.78403V7.78345V7.78259L19.5447 11.7253L26.0394 15.6671L26.0405 15.6677H26.0407Z" fill="#53B1E0"/>
<path d="M26.0407 23.5528V15.6692V15.668V15.6677H26.0405L26.0394 15.6683L19.5447 19.6101L26.0407 23.5528Z" fill="#53B1E0"/>
<path d="M26.0396 23.5534L26.0407 23.5528L19.5447 19.6101V27.4955L26.0394 23.5537L26.0396 23.5534Z" fill="#72EFDD"/>
<path d="M26.0407 31.4382V31.4379V23.5542V23.5531L26.0399 23.5537L26.0394 23.554L19.5447 27.4958L26.0407 31.4382Z" fill="#53B1E0"/>
<path d="M26.0407 31.4381L19.5447 27.4957V35.3808L26.0407 31.4381Z" fill="#56CFE1"/>
<path d="M26.0407 39.3236V31.4397V31.4385V31.4382L19.5447 35.3809L26.0394 39.3228L26.0405 39.3236H26.0407Z" fill="#53B1E0"/>
<path d="M26.0407 39.3248L26.0396 39.3242L26.0394 39.3239L19.5447 35.3821V43.2675L26.0407 39.3248Z" fill="#72EFDD"/>
<path d="M26.0407 47.2098V39.3261V39.325V39.3247L19.5447 43.2674L26.0394 47.2092L26.0405 47.2098H26.0407Z" fill="#53B1E0"/>
<path d="M19.4874 11.9435L12.9924 8.00171V15.8854L19.4874 11.9435Z" fill="#80FFDB"/>
<path d="M19.4874 11.9436L12.9924 15.8854V15.8857V15.8854L12.9913 15.8863L19.4871 19.8287H19.4874V11.9436Z" fill="#64DFDF"/>
<path d="M12.9924 23.7719L19.4874 27.714V19.8289V19.8286H19.4871L12.9913 23.7713H12.9916L12.9924 23.771V23.7719Z" fill="#64DFDF"/>
<path d="M12.9924 31.6562L12.9913 31.6568L19.4874 35.5995V27.7144L12.9924 31.6562V31.6565V31.6562Z" fill="#64DFDF"/>
<path d="M12.9913 31.6567V39.5421L19.4874 35.5994L12.9913 31.6567Z" fill="#80FFDB"/>
<path d="M12.9924 7.99453V0.109131L6.49634 4.05183L12.9924 7.99453Z" fill="#72EFDD"/>
<path d="M12.9924 15.8856V15.8854V8.00168V8.00024L12.9913 8.00111L6.49634 11.9429L12.9913 15.8848L12.9924 15.8854V15.8856Z" fill="#72EFDD"/>
<path d="M12.9924 23.7711L12.9916 23.7714L6.49634 27.7135L12.9924 31.6562V31.6565V31.6562V23.772V23.7711Z" fill="#72EFDD"/>
<path d="M0 15.886V23.7714L6.49606 19.8287L0 15.886Z" fill="#80FFDB"/>
</g>
<path d="M66.2557 40.8171C67.7812 34.7974 70.3374 24.7501 71.3682 19.4233H71.4094C72.3989 24.5335 74.9139 34.1911 76.3982 40.8171H82.7887L90.4574 10.9784H84.5204C83.4896 15.6122 80.7273 27.1753 79.779 33.758H79.7378C78.7895 28.258 75.9447 16.6949 74.4604 10.9784H68.9356C67.2865 18.1674 64.5241 28.5611 63.4521 34.0611H63.4109C63.0811 30.7698 61.8854 24.6635 59.2055 10.9784H52.65L59.9064 40.8171H66.2557Z" fill="#00468B"/>
<path d="M94.1455 40.8171H100.083V18.3839H94.1455V40.8171ZM100.083 14.7461V9.20276H94.1455V14.7461H100.083Z" fill="#00468B"/>
<path d="M106.245 40.8171H112.182V28.3446C112.182 24.3603 113.584 22.8879 116.099 22.8879C118.737 22.8879 119.521 24.7068 119.521 27.2619V40.8171H125.416V26.569C125.416 20.939 122.654 17.8642 118.366 17.8642C114.614 17.8642 112.883 19.8564 112.182 21.2422C112.141 20.5493 112.058 18.9902 111.934 18.3839H106.204C106.245 20.0729 106.245 22.1516 106.245 24.0572V40.8171Z" fill="#00468B"/>
<path d="M131.509 40.8171H137.446V28.3446C137.446 24.3603 138.848 22.8879 141.363 22.8879C144.002 22.8879 144.785 24.7068 144.785 27.2619V40.8171H150.681V26.569C150.681 20.939 147.918 17.8642 143.63 17.8642C139.879 17.8642 138.147 19.8564 137.446 21.2422C137.405 20.5493 137.322 18.9902 137.199 18.3839H131.468C131.509 20.0729 131.509 22.1516 131.509 24.0572V40.8171Z" fill="#00468B"/>
<path d="M166.256 17.8642C159.494 17.8642 155.495 22.7579 155.495 29.6871C155.495 36.3564 159.371 41.3368 165.967 41.3368C172.729 41.3368 176.605 36.3564 176.605 29.5572C176.605 22.5414 172.523 17.8642 166.256 17.8642ZM166.009 22.7579C168.977 22.7579 170.626 24.9666 170.626 29.6438C170.626 33.9312 169.018 36.4864 166.091 36.4864C163.246 36.4864 161.473 33.9312 161.473 29.6005C161.473 24.88 163.288 22.7579 166.009 22.7579Z" fill="#00468B"/>
<path d="M179.253 18.3839L185.314 40.8171H191.663C193.56 32.7619 194.714 27.695 195.044 24.88H195.085C195.58 27.8249 196.57 32.3289 198.343 40.8171H204.651L211 18.3839H205.145C202.672 29.4273 202.012 32.7619 201.558 35.0572H201.517C201.229 32.6753 200.486 29.4273 198.095 18.3839H192.612C190.014 29.2973 189.396 32.8052 188.942 35.3171H188.86C188.448 32.5021 187.417 27.3918 185.479 18.3839H179.253Z" fill="#00468B"/>
<defs>
<clipPath id="clip0_33_781">
<rect width="45.4252" height="50.5612" fill="white"/>
</clipPath>
</defs>
</svg>
